<svg xmlns="http://www.w3.org/2000/svg" viewBox="0 0 74 70"><g fill="#81B3D2"><path d="M69.85 46.71H4.05a4.24 4.24 0 00-4.13 4.31v3.5a4.24 4.24 0 004.13 4.32h.93v1.05c0 5.54 4.34 10.07 9.65 10.07h44.65c5.3 0 9.64-4.53 9.64-10.07v-1.05h.93A4.24 4.24 0 0074 54.53v-3.5a4.24 4.24 0 00-4.14-4.32zm-3.84 13.18c0 3.87-3.02 7.02-6.73 7.02H14.63c-3.71 0-6.73-3.15-6.73-7.02v-1.05H66v1.05zm5.06-5.36c0 .68-.56 1.27-1.22 1.27H4.05c-.66 0-1.22-.58-1.22-1.27v-3.5c0-.7.56-1.28 1.22-1.28h65.8c.66 0 1.22.58 1.22 1.27v3.5zM15.63 38.4l5.33 4.06 5.32-4.06 5.33 4.06 5.33-4.06 5.33 4.06 5.33-4.06 5.32 4.06 5.33-4.07 5.34 4.06 6.2-4.7-1.73-2.47-4.47 3.4-5.34-4.05-5.33 4.05-5.32-4.05-5.33 4.05-5.33-4.05-5.33 4.05-5.33-4.05-5.32 4.05-5.32-4.05-5.33 4.05-4.47-3.4-1.72 2.46 6.19 4.71zm-7.65-6.87h60.88c.04-.62.06-1.24.06-1.87l-.03-1.17C68.23 12.66 54.2 0 36.95 0 19.72 0 5.68 12.66 5.01 28.5a26.88 26.88 0 00.04 3.04h2.93zm28.97-28.5c15.6 0 28.35 11.32 29.02 25.46H7.93C8.6 14.36 21.36 3.04 36.95 3.04z"/><ellipse cx="36.95" cy="15.26" rx="1.95" ry="2.03"/><ellipse cx="29.17" cy="10.23" rx="1.95" ry="2.03"/><ellipse cx="44.73" cy="10.23" rx="1.95" ry="2.03"/></g></svg>