<svg xmlns="http://www.w3.org/2000/svg" viewBox="0 0 75 72"><g fill="#81B3D2"><path d="M29.66 65.03h16V41.21h-16v23.82zm2.93-20.9h10.13v17.98H32.59V44.13z"/><path d="M72.77 39.25l2.08-2.06-9.91-9.87V0H51.13v13.57L37.5 0 .15 37.19l2.08 2.06 7.83-7.8v37.63H6.12V72H70v-2.92h-5.06V31.46l7.83 7.8zM62 69.08H13V28.53L37.5 4.15 62 28.53v40.55zm0-44.69l-7.94-7.9V2.92H62V24.4z"/><path d="M29.9 27.08a7.73 7.73 0 007.76 7.71 7.73 7.73 0 007.75-7.71 7.73 7.73 0 00-7.75-7.71 7.73 7.73 0 00-7.75 7.71zm7.76-4.95a4.96 4.96 0 11-4.97 4.95 4.96 4.96 0 014.97-4.95zm-20.6 19.08h3v3.92h-3zm5.94 0h3v3.92h-3zm-5.94 5.97h3v3.92h-3zm5.94 0h3v3.92h-3zm26-5.97h3v3.92h-3zm5.94 0h3v3.92h-3zM49 47.18h3v3.92h-3zm5.94 0h3v3.92h-3z"/></g></svg>