<svg xmlns="http://www.w3.org/2000/svg" viewBox="0 0 458 352"><path fill="#766458" d="M152.31 56.1l-2.85 4.87h-2.73l-.86 1.43h2.75l-6.07 10.39c-1.27 2.2-.37 4.24 2.06 4.24 1.76 0 3.7-1.3 5.56-3.07 0 3.8 5.34 4.55 8.61.46h.67a9.2 9.2 0 006.18-2.9c-.2-.4-.72-.85-1.13-1.03l-.2.23a6.53 6.53 0 01-4.56 2.2l2.85-4.84c1.82-3.13.14-6.08-2.7-6.08-2.33 0-4.12.92-5.87 3.9l-1.48 2.55-1.23 2.1-.16.17c-2.18 2.5-4.3 4.48-5.63 4.48-.67 0-1.05-.46-.35-1.64l6.47-11.16h2.47l.87-1.43h-2.5l2.85-4.88zm7.53 7.83c.99.09 1.45 1.3.42 3.04l-2.2 3.72h-.15c-.98 0-1.77.8-1.77 1.78 0 .37.12.72.3 1l-.04.06c-1.42 2.41-4.87 1.95-3.07-1.14l2.29-3.93 1.45-2.44c.93-1.55 2-2.16 2.77-2.09zm21.93-7.84l-2.84 4.88h-2.73l-.87 1.43h2.76l-6.07 10.38c-1.28 2.21-.38 4.25 2.06 4.25 1.22 0 2.54-.64 3.85-1.62l-.77 1.33h3.04l4.59-7.88c4.64-5.77 6.7-5.02 5.4-2.81l-3.92 6.74c-1.28 2.2-.38 4.24 2.06 4.24 1.8 0 3.79-1.37 5.7-3.2.14 1.86 1.66 3.2 4.08 3.2 3.43 0 6.82-2.64 9.32-5.5-.2-.4-.72-.86-1.13-1.04l-.2.23c-2.18 2.5-4.96 4.47-7.08 4.47-1.86 0-2.97-1.14-1.57-3.55l.29-.52c1.94.8 5.6.43 7.87-3.44l.43-.75c1.63-2.75.06-4.82-2.4-4.82-2.45 0-4.4 1.27-5.67 3.45l-2.93 4.96-.17.2c-2.18 2.5-4.3 4.47-5.63 4.47-.67 0-1.05-.46-.35-1.63l4.35-7.55c1.3-2.26.06-3.9-1.62-3.9-1.31 0-2.7.72-4.21 2.27l4.81-8.29h-3.01l-8.43 14.44-.17.19c-2.17 2.5-4.3 4.47-5.63 4.47-.67 0-1.04-.46-.35-1.63l6.48-11.16h2.46l.87-1.43h-2.5l2.85-4.88zm21.32 8.24c.97-.05 1.5.86.49 2.6l-.44.75c-1.45 2.44-3.4 2.38-4.53 1.98l1.94-3.36c.77-1.29 1.78-1.92 2.54-1.97zm44.31-5.46c-1.71 1.52-1.85 3.21-.78 4.59l.26.34c-1.33 1.87-3.13 4.39-5.1 6.69l-.2.23a6.54 6.54 0 01-4.57 2.2l2.85-4.84c1.83-3.13.14-6.08-2.7-6.08-2.32 0-4.12.92-5.86 3.9l-1.49 2.55-1.24 2.1-.15.17c-2.5 2.84-4.64 4.67-7.02 5.68l6.76-11.42h-1.77c0-1.23-1.28-2.87-3.17-2.87-1.62 0-3.89 1.27-5.16 3.45l-4.24 7.22c-1.28 2.21-.38 4.25 2.06 4.25.84 0 1.86-.37 2.88-1l-.85 1.4c-4.06 1.23-6.62 2.87-6.62 5.1 0 2.88 4.45 3.48 6.62-.2l2.3-3.92a18.44 18.44 0 007.24-4.47c-.03 3.82 5.33 4.57 8.6.48h.67a9.2 9.2 0 006.19-2.9c1.45-1.66 2.58-3.15 4.99-6.4l.4.5c.38.48.53 1.09.18 1.69l-3.2 5.48c-1.28 2.2-.37 4.24 2.07 4.24 1.53 0 3.2-1 4.84-2.42-.05 1.39.88 2.42 2.62 2.42a5.8 5.8 0 002.87-1l-.84 1.4c-4.07 1.23-6.62 2.87-6.62 5.1 0 2.87 4.44 3.48 6.62-.2l2.29-3.92c2.46-.76 4.87-2.21 7.38-4.6.13 1.86 1.66 3.22 4.09 3.22 2.46 0 4.9-1.36 7-3.19-.12 3.9 5.31 4.7 8.61.58h.67c.95 0 2.18-.3 3.36-.85-.81 2.07-.07 3.46 1.66 3.46 1.66 0 3.51-1.49 4.96-2.87-.29 1.6.67 2.87 2.59 2.87 2.5 0 5.37-2.64 7.87-5.5 1.7-1.96 3.22-4.05 4.3-5.45-1.2 3.1-.56 8.66-3.43 8.66-1.02 0-1.42-1.1-1.42-1.1l-1.9.98s.56 2.41 3.32 2.41c.29 0 .55-.03.84-.06l.09-.02c3.07-.4 6.12-2.81 8.38-5.42a1.9 1.9 0 00-1.13-1.04l-.2.23a18.85 18.85 0 01-3.63 3.24c.96-2.84.76-7.2 2.62-11.01l-2.27-1.2c-1.25 1.68-3.98 5.58-6.7 8.74l-.2.23c-2.18 2.5-4.3 4.47-5.64 4.47-.67 0-1.04-.46-.35-1.63l6.45-11.16h-3.02l-5.37 9.27c-2.3 2.06-4.06 3.2-4.65 2.95-.75-.32 0-1.43.38-2.07l5.9-10.15h-3.02l-4.74 8.1-.2.22a6.54 6.54 0 01-4.56 2.21l2.85-4.85c1.83-3.13.15-6.08-2.7-6.08-2.32 0-4.12.92-5.86 3.9l-1.49 2.55-1.23 2.1-.16.17c-2.17 2.5-4.96 4.48-7.08 4.48-1.86 0-2.96-1.15-1.57-3.56l.3-.52c1.94.8 5.6.43 7.86-3.44l.44-.75c1.62-2.75.06-4.82-2.41-4.82-2.44 0-4.39 1.27-5.67 3.45l-2.92 4.96-.18.2c-2.5 2.84-4.64 4.67-7.02 5.68l6.76-11.42h-1.77c0-1.23-1.28-2.87-3.17-2.87-1.62 0-3.89 1.27-5.16 3.45l-2.9 4.93-.21.23c-2.18 2.5-4.3 4.47-5.63 4.47-.67 0-1.05-.46-.35-1.63l3.02-5.22c1.04-1.8.55-2.87-.44-4.05l-1.68-2c-.44-.55-.44-1.15.17-1.73zm-10.29 5.06c.98.09 1.45 1.3.42 3.04l-2.2 3.72h-.15c-.98 0-1.77.8-1.77 1.78 0 .37.12.72.3 1l-.04.06c-1.42 2.41-4.87 1.95-3.07-1.14l2.29-3.93 1.45-2.44c.93-1.55 2-2.16 2.77-2.09zm50.16 0c.98.09 1.45 1.3.42 3.04l-2.2 3.72h-.15c-.99 0-1.77.8-1.77 1.78 0 .37.12.72.3 1l-.04.06c-1.42 2.41-4.87 1.95-3.07-1.14l2.29-3.93 1.45-2.44c.93-1.55 2-2.16 2.77-2.09zm-11.7.4c.97-.05 1.5.86.48 2.6l-.43.75c-1.45 2.44-3.4 2.38-4.53 1.98l1.95-3.35c.76-1.3 1.78-1.93 2.53-1.98zm-52.4.2c1.02 0 1.67.89.84 2.4l-2.3 3.96c-1.82 2.9-3.65 4.3-4.93 4.3-.67 0-1.04-.45-.35-1.63l4.21-7.26c.71-1.21 1.73-1.76 2.53-1.77zm38.92 0c1.02 0 1.68.89.84 2.4l-2.29 3.96c-1.83 2.9-3.66 4.3-4.93 4.3-.67 0-1.05-.45-.35-1.63l4.2-7.26c.72-1.21 1.73-1.76 2.53-1.77zm-45.34 14.91l-1.36 2.41c-.64 1.12-1.66.95-1.66.14 0-.77.73-1.66 3.02-2.55zm38.92 0l-1.36 2.41c-.64 1.12-1.65.95-1.65.14 0-.77.72-1.66 3.02-2.55zm-154.64-11.6h28.92v1.94h-28.92zm227.03 0h28.92v1.94h-28.92z"/><path fill="#81b3d3" d="M322.7 37.36v7.74h-20.82V.35h20.82v7.67h-13.2v10.8h10.53v7.68H309.5v10.86zm-32.8-37h7.56V45.1h-7.62V23.11L286.8 34.5h-7.43L276.4 23.1v22h-7.62V.34h7.55l6.8 21.6zM258 8.01h-5.52v29.34H258zm2.98-7.67c2.54 0 4.7 2.11 4.7 4.73v35.29a4.79 4.79 0 01-4.7 4.73h-11.42c-2.6 0-4.7-2.17-4.7-4.73V5.09a4.7 4.7 0 014.7-4.73zm-28 28.26l7.67-1.8v13.56a4.79 4.79 0 01-4.7 4.73h-11.42c-2.6 0-4.7-2.18-4.7-4.73V5.08a4.7 4.7 0 014.7-4.73h11.42c2.54 0 4.7 2.11 4.7 4.73v9.08l-7.68 1.8V8.01h-5.52v29.34h5.52zm-16.81 8.75v7.74h-18.21V.35h7.61v37.01zm-21.35 0v7.74h-20.81V.35h20.81v7.67h-13.2v10.8h10.54v7.68h-10.54v10.86zm-32.26-37h7.68l-1.2 44.74h-14.47l-1.97-18.47-1.97 18.47H136.1L134.96.35h7.61l.64 37.01h.82l4.76-37h7.55l4.9 37h.75z"/><path fill="#fff" d="M380.74 213.95l25.43-73.97h25.2l25.67 73.97h-20.21l-3.72-13.36h-28.56l-3.84 13.36zm35.65-52.14l-7.55 24.5h20.1l-7.56-24.5a200.68 200.68 0 01-1.16-3.6 85.7 85.7 0 01-.8-3.83 10.6 10.6 0 01-.36-1.28c-.08-.47-.15-.9-.23-1.28-.08.39-.2.81-.35 1.28l-.23 1.28c-.08.15-.12.3-.12.46a.9.9 0 01-.11.35 42.82 42.82 0 01-.82 3.37 49.86 49.86 0 01-.8 3.25zm-117.68 52.14v-73.97h19.51l27.87 37.97a37.23 37.23 0 011.98 3.48 53.5 53.5 0 011.97 3.6l1.4 3.02c.46 1.01.92 1.98 1.39 2.9a23.1 23.1 0 00-.35-2.43c-.08-.78-.16-1.59-.23-2.44a91.7 91.7 0 01-.35-4.76 99.82 99.82 0 01-.12-5v-36.34h19.4v73.97h-19.4l-28.1-38.2a21.62 21.62 0 01-2.2-3.26 65.83 65.83 0 01-1.98-4.06 103.3 103.3 0 00-1.4-2.9 50.99 50.99 0 00-1.16-2.8c.4 2.4.7 4.85.93 7.32s.35 4.96.35 7.44v36.46zm-88-54.98c3.55-6.58 8.5-11.62 14.86-15.1s12.96-5.23 19.85-5.23c.93 0 1.86.04 2.8.12l2.9.23a41.11 41.11 0 018.47 2.1 39.44 39.44 0 018.13 3.94 36.16 36.16 0 0112.78 14.28 39.93 39.93 0 014.52 18.47c0 .77-.03 1.58-.11 2.44 0 .77-.08 1.54-.23 2.32a27.07 27.07 0 01-.93 4.88 36.03 36.03 0 01-1.51 4.64 37.35 37.35 0 01-15.21 17.54 41.81 41.81 0 01-21.72 6.15 11.48 11.48 0 01-1.63-.11h-1.5a46.95 46.95 0 01-7.9-1.4 37.93 37.93 0 01-7.44-2.9 37.92 37.92 0 01-15.32-14.52c-3.72-6.34-5.58-12.93-5.58-19.74 0-1 .04-2.01.12-3.02.07-1 .23-2.05.46-3.13a43.65 43.65 0 011.63-6.04 36.92 36.92 0 012.55-5.92zm52.83 26.59c.23-.78.43-1.59.58-2.44.23-.85.39-1.7.47-2.56.07-.54.11-1.08.11-1.62.08-.54.12-1.05.12-1.51a8.46 8.46 0 00-.12-1.4v-1.39a27.38 27.38 0 00-3.02-9.64 17.79 17.79 0 00-6.73-7.2 30.79 30.79 0 00-4.65-1.85 24.03 24.03 0 00-2.32-.35 11.82 11.82 0 00-2.32-.24 17.9 17.9 0 00-10.92 3.72 19.32 19.32 0 00-6.97 9.87l-.23.47v.46a18.36 18.36 0 00-.58 2.2l-.46 2.21-.24 1.63v2.44c0 .23.04.5.12.81.23 4.1 1.47 8.01 3.72 11.73a16.39 16.39 0 009.52 7.2l1.4.46 1.5.24 1.4.23h1.39c4.1 0 7.78-1.2 11.03-3.6a20.7 20.7 0 007.2-9.87zm-82.15 21.42c-3.64 2.48-7.6 4.18-11.85 5.11s-8.55 1.51-12.89 1.74a59.57 59.57 0 01-3.72.12h-23.8v-73.97h25.08a72.53 72.53 0 0115.91 1.86 30.35 30.35 0 0111.27 5.1c4.33 3.02 7.7 7.01 10.1 11.96a40.3 40.3 0 014.06 15.33c.08.47.12.93.12 1.4v2.9c-.23 5.5-1.55 10.8-3.95 15.91s-5.84 9.29-10.33 12.54zm-32.4-9.64c.23 0 .46.04.7.12h.8c.32 0 .59.04.82.12h3.13l2.44-.24a30.62 30.62 0 005.92-1.04 17.04 17.04 0 005.23-2.44 15.46 15.46 0 005.46-7.2 25.72 25.72 0 001.86-9.64v-.93c0-.3-.04-.62-.12-.93a23.14 23.14 0 00-2.09-8.48 16.4 16.4 0 00-5.1-6.62 13.34 13.34 0 00-5.47-2.67 30.68 30.68 0 00-6.04-.8H149zm-79.91 16.6v-73.97h45.4v16.15H88.93V169h24.04v15.8H88.93v12.53h25.55v16.6zm-59.4-23.82c.07.07.1.15.1.23.09 0 .16.04.24.11a51.98 51.98 0 007.09 6.5 16.19 16.19 0 009.05 3.14c.08 0 .16.04.24.12h.34c.08 0 .16.04.24.12h1.27c.4-.08.74-.16 1.05-.24a9.7 9.7 0 003.48-1.4 7.72 7.72 0 002.67-2.55l.24-.46.23-.46c.15-.55.27-1.05.35-1.51.07-.47.11-.9.11-1.28 0-2.1-.93-3.83-2.78-5.23a19.95 19.95 0 00-5.81-3.37 16.8 16.8 0 00-2.44-.7 31.44 31.44 0 00-2.2-.57h-.24c-.08-.08-.15-.12-.23-.12A38 38 0 0112 178.04a15.94 15.94 0 01-6.86-8.94 100.03 100.03 0 01-.7-2.44 27.87 27.87 0 01-.34-2.67 3.41 3.41 0 01-.12-.82v-2.78c.08-.62.2-1.24.35-1.86a25.49 25.49 0 011.16-4.65 17.61 17.61 0 012.1-4.18c2.47-4.1 5.64-7.04 9.51-8.82a29.62 29.62 0 0112.31-2.67c1.01 0 2.02.07 3.02.23a46.31 46.31 0 013.26.35 39.74 39.74 0 018.24 2.32 44.3 44.3 0 017.67 3.83l-6.4 14.29a44.64 44.64 0 00-6.61-4.07 16.63 16.63 0 00-7.55-1.74h-.93a9.2 9.2 0 00-5 2.44c-1.54 1.31-2.31 2.75-2.31 4.3v.7c.07.22.19.46.34.69.16.54.43 1.04.82 1.5a10 10 0 001.27 1.29c.86.7 2.1 1.35 3.72 1.97 1.63.54 3.33 1.08 5.11 1.63 1.47.38 2.9.77 4.3 1.16 1.4.3 2.55.62 3.48.93 4.34 1.54 7.59 4.14 9.76 7.78a22.38 22.38 0 013.36 11.38v.58c0 .46-.04.93-.11 1.4v1.27a28.67 28.67 0 01-3.95 11.5 21.47 21.47 0 01-8.48 8.36 37.06 37.06 0 01-4.06 1.62 82.48 82.48 0 01-4.18 1.05 26.86 26.86 0 01-3.49.46 25.49 25.49 0 01-3.37.23h-1.27a38.96 38.96 0 01-13.7-3.02 42.69 42.69 0 01-11.97-7.66zm341.57 147.12a2.4 2.4 0 01.68-1.67 2.59 2.59 0 01.82-.58c.33-.14.7-.22 1.1-.22.45 0 .88.09 1.3.26.41.17.77.4 1.06.72.24.3.43.64.57 1.05.14.4.2.83.2 1.28a6 6 0 01-.45 2.36 5.98 5.98 0 01-1.3 1.92 5.75 5.75 0 01-.84.69 9.29 9.29 0 01-.9.54l-.72.35a8.35 8.35 0 00-.37.17l-1.35-2c.25-.08.52-.2.83-.34.3-.15.59-.33.85-.54a2.93 2.93 0 00.68-.76c.18-.3.28-.63.3-1.01-.65 0-1.22-.2-1.72-.58-.49-.38-.74-.93-.74-1.64m7.84 0a2.47 2.47 0 01.67-1.67 2.6 2.6 0 011.92-.8c.45 0 .89.09 1.3.26.42.17.77.4 1.06.72.25.3.44.64.58 1.05.13.4.2.83.2 1.28a6 6 0 01-.46 2.36 6.01 6.01 0 01-1.3 1.92 5.66 5.66 0 01-.84.69 8.11 8.11 0 01-.9.54c-.27.14-.51.26-.72.35a9.73 9.73 0 00-.37.17l-1.35-2c.25-.08.52-.2.83-.34.3-.15.59-.33.86-.54.27-.22.5-.47.67-.76.18-.3.28-.63.3-1.01a2.72 2.72 0 01-1.71-.58 1.96 1.96 0 01-.74-1.64M94.53 278.52c0 .29-.06.58-.17.87a2.38 2.38 0 01-.5.8 2.64 2.64 0 01-1.93.79 3.42 3.42 0 01-1.3-.25 2.92 2.92 0 01-1.05-.73 3.12 3.12 0 01-.58-1.04 4.03 4.03 0 01-.2-1.28c0-.86.15-1.64.46-2.36a6 6 0 011.3-1.92 5.51 5.51 0 01.84-.7 8.79 8.79 0 01.9-.53 13.56 13.56 0 011.09-.52l1.34 1.99a9.54 9.54 0 00-.82.35c-.3.14-.6.32-.86.54-.27.21-.5.46-.67.75-.18.3-.28.63-.3 1.02.64 0 1.22.19 1.71.57.5.38.74.93.74 1.65m-7.84 0a2.46 2.46 0 01-.67 1.67 2.6 2.6 0 01-.83.57c-.32.15-.69.22-1.1.22a3.41 3.41 0 01-1.29-.25 2.94 2.94 0 01-1.06-.73 3.09 3.09 0 01-.57-1.04 4 4 0 01-.2-1.28 6 6 0 01.45-2.36 5.98 5.98 0 011.3-1.92c.24-.25.52-.48.84-.7a9.4 9.4 0 011.62-.88l.37-.17 1.35 1.98c-.25.1-.53.21-.83.36-.3.14-.59.32-.86.53a2.95 2.95 0 00-.67.76c-.18.3-.28.63-.3 1.02.65 0 1.22.19 1.71.57.5.38.74.93.74 1.65m245.35 56.87h3.82l11.84-20.63h-3.78zm-.18 1.5c-1.23 0-2.18.97-2.18 2.2s.95 2.19 2.18 2.19c1.23 0 2.22-.95 2.22-2.18s-.99-2.22-2.22-2.22m-26.35-5.53l1.1-1.88c4.35-6.07 7.33-4.4 5.98-2.11l-1.81 3.12c-1.13 1.96-4.43 3.34-5.27.87m25.1 2.98a2.39 2.39 0 00-1.42-1.3l-.26.29a23.58 23.58 0 01-4.54 4.1c1.2-3.6.94-9.12 3.27-13.95l-2.84-1.52c-1.56 2.14-4.97 7.08-8.39 11.08l.02.02-.04-.02-.26.29c-2.72 3.16-5.37 5.66-7.05 5.66-.83 0-1.63-.83-1.63-2.54v-1.56c2.65.33 5.45-1.42 7.23-4.5l1.01-1.75c3.53-6.03-2.21-8.03-6.06-4.5l5.37-9.34h-3.78l-10.77 18.7a3 3 0 00-.7-.46l-.25.3c-2.72 3.15-6.2 5.66-8.86 5.66-2.33 0-3.7-1.46-1.96-4.5l3.88-6.76c2.18-3.75 6.04-3.13 3.78.8l-.54.94h3.09l.54-.94c2.04-3.5.07-6.1-3.01-6.1-3.05 0-5.49 1.6-7.09 4.35l-3.72 6.38-.23-.13-.25.3c-2.73 3.15-5.38 5.66-7.05 5.66-.84 0-1.3-.58-.44-2.07l8.07-14.13h-3.78l-6.72 11.73c-2.87 2.61-5.08 4.07-5.81 3.74-.95-.4 0-1.81.47-2.61l7.37-12.86h-3.77l-7.34 12.7c-.82.73-2.4 1.4-3.2 1.93 1.2-3.6.95-9.11 3.28-13.95l-2.84-1.52c-1.56 2.14-10.28 13.7-13.7 17.7.33.46.88.94 1.42 1.3a496.19 496.19 0 0010.68-13.52c-1.49 3.93-.69 10.98-4.28 10.98-1.27 0-1.78-1.39-1.78-1.39l-2.36 1.24s.69 3.05 4.14 3.05c.36 0 .69-.04 1.05-.07.04 0 .07-.04.1-.04a16.1 16.1 0 006.37-2.37c-.01 1.54.91 2.48 2.5 2.48 2.07 0 4.4-1.89 6.2-3.63-.35 2.03.84 3.63 3.24 3.63 2.35 0 4.96-1.89 7.44-4.36.03 2.5 1.97 4.36 5.13 4.36 3.06 0 6.1-1.71 8.74-4.02l-2.1 3.66h3.8l4.33-7.52v3.01c0 3.23.62 4.87 3.67 4.87 3.12 0 6.72-3.34 9.84-6.97l-.02-.04.05.04c2.15-2.47 4.04-5.13 5.38-6.9-1.5 3.92-.7 10.96-4.29 10.96-1.27 0-1.78-1.38-1.78-1.38l-2.36 1.24s.69 3.05 4.14 3.05c.36 0 .69-.04 1.06-.07.03 0 .07-.04.1-.04 3.85-.51 7.67-3.56 10.5-6.87m-114.59-1.08h-.18a2.23 2.23 0 00-2.22 2.25c0 .47.15.91.37 1.27l-.04.07c-1.78 3.05-6.1 2.47-3.85-1.45l2.87-4.98 1.82-3.08c2.65-4.5 6.28-2.73 4 1.2zm-25.43 14.13c-.8 1.42-2.07 1.2-2.07.18 0-.98.9-2.1 3.82-3.23zm-28.74-13.73c-2.29 3.6-4.54 5.3-6.1 5.3-.84 0-1.31-.58-.44-2.07l5.27-9.2c2.03-3.51 6.07-2.6 4.21.8zm-12.05-14.75c1.12-1.93 2.36-2.76 3.41-2.76 1.42 0 2.07.94 2.07 2.32 0 3.53-4.36 10.83-10.17 9.88h-.76zm92.77 14.1l-.25.28c-2.72 3.16-5.38 5.67-7.05 5.67-.83 0-1.3-.58-.43-2.07l5.45-9.55c1.63-2.87.07-4.94-2.04-4.94-1.63 0-3.34.87-5.23 2.83l1.42-2.47h-3.78l-6.09 10.53a2.77 2.77 0 00-.48-.29l-.26.3a8.15 8.15 0 01-5.7 2.8l3.56-6.15c2.29-3.96.18-7.7-3.38-7.7-2.9 0-5.16 1.16-7.34 4.94l-1.85 3.24-1.62 2.77a2.49 2.49 0 00-.34-.2l-.26.3c-3.12 3.6-5.77 5.92-8.75 7.2l10.35-17.74h-3.78l-6.68 11.63c-2.9 2.68-5.16 4.17-5.88 3.85-.95-.4 0-1.82.47-2.62l7.37-12.86h-3.78l-6.02 10.43a2.48 2.48 0 00-.33-.19l-.26.3c-2.72 3.16-5.37 5.66-7.05 5.66-.83 0-1.3-.58-.43-2.07l5.45-9.55c1.63-2.87.07-4.94-2.04-4.94-1.63 0-3.34.87-5.23 2.83l1.42-2.47h-3.78l-6.04 10.45a2.63 2.63 0 00-.36-.2l-.25.29c-2.73 3.16-5.38 5.66-7.05 5.66-.84 0-1.3-.58-.44-2.07l6.1-10.68h-2.14c.15-1.6-1.49-3.81-3.96-3.81-2.03 0-4.87 1.6-6.46 4.36l-3.9 6.73a2.17 2.17 0 00-.83-.48l-.26.29c-2.72 3.16-4.81 5.66-8.56 5.66-2.58 0-4.14-2.57-1.89-6.43l1.06-1.85c.69.1 1.38.19 2.14.19 4.03 0 8.61-2.08 11.59-7.27a10.48 10.48 0 001.53-5.09c0-3.41-2.22-5.63-5.02-5.63-2.07 0-4.54 1.46-6.24 4.43l-5.9 10.14a6.09 6.09 0 01-3.37-5.38 6 6 0 012.43-4.75l-1.23-2.22c-2.7 1.93-3.89 4.5-3.89 7.05 0 3.01 1.7 5.92 4.76 7.52l-1.13 1.96c-2.65 4.58-1.09 9.66 4.25 9.66 4.23 0 6.08-1.88 8.69-4.35-.83 2.37.37 4.35 3.04 4.35 1.53 0 3.42-.98 5.24-2.47.18 1.46 1.34 2.47 3.26 2.47 1.81 0 3.78-1.12 5.72-2.77l-1.39 2.41h3.82l5.77-10.06c5.78-7.23 8.36-6.29 6.72-3.49l-4.9 8.53c-1.6 2.8-.47 5.38 2.58 5.38 2.03 0 4.26-1.42 6.44-3.41-.45 2.08.5 3.41 2.39 3.41 1.81 0 3.88-1.53 5.6-3.05l-2.08 3.56c-5.12 1.52-8.32 3.63-8.32 6.46 0 3.64 5.56 4.4 8.28-.25l2.9-4.98c3.17-.99 6.28-2.95 9.53-6.17-.52 5.28 6.51 6.48 10.75 1.12h.83c1.38 0 3.25-.52 4.94-1.45l-2.54 4.4h3.81l5.78-10.07c5.78-7.23 8.36-6.28 6.72-3.48l-4.9 8.53c-1.6 2.8-.48 5.38 2.58 5.38 3.12 0 6.72-3.34 9.84-6.98-.25-.5-.9-1.09-1.42-1.3m118.63-35.58c-2.29 3.74-4.61 5.52-6.2 5.52-.84 0-1.31-.58-.44-2.07l5.26-9.2c2.04-3.52 6.07-2.6 4.22.8h.03zm-36.18.22c-2.3 3.6-4.55 5.3-6.1 5.3-.84 0-1.31-.58-.44-2.07l5.26-9.2c2.04-3.52 6.07-2.6 4.22.8zm-39.92 13.73c-.8 1.42-2.07 1.2-2.07.18 0-.98.87-2.1 3.78-3.23zm8.03-28.48c1.13-1.93 2.36-2.76 3.42-2.76 5.99 0 1.52 14.43-8.1 12.2h-.77zm77.66 14.1l-.25.29c-2.72 3.16-5.38 5.66-7.05 5.66-.83 0-1.3-.58-.44-2.07l12.8-22.12h-3.79l-5.55 9.59a4.1 4.1 0 00-3.46-1.96c-2.03 0-4.86 1.6-6.46 4.36l-3.7 6.38-.23-.14-.26.3c-2.72 3.16-5 5.66-6.67 5.66-.84 0-1.3-.58-.44-2.07l5.45-9.55c1.64-2.87.07-4.95-2.03-4.95-1.64 0-3.34.88-5.24 2.84l1.42-2.47h-3.78l-6.03 10.45a2.69 2.69 0 00-.36-.2l-.26.29c-2.72 3.16-5.37 5.66-7.05 5.66-.83 0-1.3-.58-.43-2.07l6.1-10.68h-2.14c.14-1.6-1.5-3.82-3.96-3.82-2.04 0-4.87 1.6-6.47 4.36l-3.65 6.3-.21.24c-2.72 3.16-5.75 5.67-7.42 5.67-.84 0-1.3-.58-.44-2.07l3.78-6.61c1.3-2.3.69-3.64-.54-5.13l-2.11-2.54c-.54-.69-.54-1.45.22-2.18l-1.96-2.14c-2.15 1.92-2.33 4.07-.99 5.81l.33.44c-1.67 2.36-3.92 5.56-6.4 8.46l.26.32c-3.1 3.58-5.75 5.9-8.73 7.16l4.8-8.2h-3.78l-.4.65c-2 3.52-4.29 6.03-7.23 6.03-2.58 0-3.05-2.58-.8-6.43l1.06-1.85a13.6 13.6 0 002.14.18c13.44 0 19.95-17.98 8.1-17.98-2.07 0-4.54 1.45-6.25 4.43l-5.88 10.13a6.08 6.08 0 01-3.38-5.37 6 6 0 012.43-4.76l-1.23-2.22c-2.7 1.93-3.89 4.5-3.89 7.05 0 3.02 1.71 5.92 4.76 7.52l-1.13 1.96c-2.65 4.58-2.18 9.67 3.17 9.67 1.6 0 2.94-.48 4.1-1.2l-.98 1.7c-5.12 1.57-8.28 3.64-8.28 6.47 0 3.63 5.56 4.4 8.28-.25l2.9-4.98c3.93-1.24 7.78-3.92 11.92-8.72a2.22 2.22 0 00-.23-.35 134.2 134.2 0 005.95-7.75l.5.62c.48.61.66 1.38.22 2.14l-4 6.94c-1.6 2.8-.47 5.37 2.59 5.37 1.9 0 4.34-1.24 6.38-3.02-.04 1.74 1.14 3.02 3.3 3.02 1.52 0 3.41-.98 5.23-2.47.18 1.46 1.35 2.47 3.27 2.47 1.8 0 3.78-1.12 5.72-2.77l-1.4 2.41h3.82l5.78-10.06c5.77-7.23 8.35-6.29 6.72-3.49l-4.9 8.54c-1.6 2.8-.48 5.37 2.57 5.37 2.01 0 3.84-1.38 5.98-3.33-.2 1.9 1 3.33 3.29 3.33 1.52 0 3.41-.98 5.23-2.47.18 1.46 1.34 2.47 3.27 2.47 3.12 0 6.72-3.34 9.84-6.97a3.3 3.3 0 00-1.42-1.3m-112.28-5.3c2.18-3.75 6.04-3.13 3.78.79l-.54.94c-1.82 3.1-4.26 3.02-5.67 2.51zm-3.05 13.58c4.29 0 8.54-3.34 11.66-6.98a3.27 3.27 0 00-1.41-1.3l-.26.29c-2.72 3.16-6.21 5.66-8.86 5.66-2.33 0-3.7-1.45-1.97-4.5l.37-.66c2.43 1.02 7 .55 9.84-4.36l.55-.94c2.03-3.49.07-6.1-3.02-6.1-3.05 0-5.48 1.6-7.08 4.36l-3.68 6.3c-.04-.01-.08-.04-.11-.06l-.26.3c-2.72 3.16-5.37 5.66-7.04 5.66-.84 0-1.31-.58-.44-2.07l5.45-9.55c1.63-2.87.07-4.95-2.04-4.95-1.63 0-3.38.91-5.26 2.88l6.03-10.5h-3.78l-10.66 18.49a2.47 2.47 0 00-.43-.26l-.25.3c-2.73 3.16-5.38 5.66-7.05 5.66-.84 0-1.3-.58-.44-2.07l8.1-14.13h3.1l1.08-1.82h-3.12l3.56-6.17h-3.78l-3.56 6.17h-3.41l-1.1 1.82h3.46l-7.6 13.15c-1.6 2.8-.47 5.38 2.58 5.38 1.88 0 3.93-1.22 5.94-2.97l-1.5 2.6h3.82l5.74-9.99c5.81-7.3 8.39-6.36 6.76-3.56l-4.91 8.54c-1.6 2.8-.47 5.38 2.58 5.38 2.3 0 4.85-1.8 7.28-4.2.1 2.42 2.03 4.2 5.12 4.2m-127.47-13.59c2.18-3.74 6.03-3.13 3.78.8l-.55.94c-1.81 3.1-4.25 3.02-5.67 2.5zm23.12 9.2l5.27-9.2c2.03-3.53 6.06-2.62 4.21.8l-2.94 5.16c-2.29 3.6-4.55 5.3-6.1 5.3-.84 0-1.31-.58-.44-2.07m53.98-9.19c2.18-3.74 6.03-3.13 3.78.8l-.55.94c-1.81 3.1-4.25 3.02-5.66 2.5zm-57.8 9.53c-.63 2.24.56 4.06 3.13 4.06 1.52 0 3.41-.98 5.23-2.47.18 1.45 1.34 2.47 3.27 2.47 2.01 0 4.22-1.4 6.37-3.35-.42 2.04.54 3.35 2.4 3.35 2.07 0 4.4-1.9 6.21-3.64-.36 2.04.84 3.64 3.23 3.64 3.13 0 6.72-3.34 9.85-6.98l-.1-.15c2.09-2.43 3.93-5 5.25-6.75-1.5 3.92-.7 10.97-4.29 10.97-1.27 0-1.78-1.38-1.78-1.38l-2.36 1.23s.69 3.06 4.14 3.06c.36 0 .69-.04 1.05-.08.04 0 .07-.03.11-.03 2.78-.37 5.53-2.06 7.91-4.21.06 2.49 1.99 4.32 5.13 4.32 4.29 0 8.54-3.34 11.66-6.98a3.27 3.27 0 00-1.42-1.3l-.25.28c-2.72 3.16-6.21 5.67-8.86 5.67-2.33 0-3.7-1.45-1.97-4.5l.37-.66c2.43 1.02 7 .55 9.84-4.36l.55-.94c2.03-3.49.07-6.1-3.02-6.1-3.05 0-5.48 1.6-7.08 4.35l-3.67 6.3-.1-.05-.26.3a23.59 23.59 0 01-4.54 4.1c1.2-3.6.95-9.12 3.27-13.95l-2.83-1.53c-1.56 2.14-4.98 7.09-8.4 11.08l.12.14-.14.15c-2.72 3.16-5.38 5.67-7.05 5.67-.83 0-1.3-.58-.43-2.07l8.06-14.14h-3.78l-6.72 11.74c-2.87 2.61-5.08 4.07-5.81 3.74-.94-.4 0-1.81.47-2.61l7.38-12.86h-3.78l-6.02 10.4-.28-.16-.26.29c-2.72 3.16-5.37 5.67-7.04 5.67-.84 0-1.31-.58-.44-2.07l6.1-10.69h-2.14c.14-1.6-1.49-3.81-3.96-3.81-2.04 0-4.87 1.6-6.47 4.36l-3.83 6.61a2.8 2.8 0 00-.57-.36l-.26.29c-2.72 3.16-5.86 5.66-8.5 5.66-2.33 0-3.71-1.45-1.97-4.5l3.89-6.76c2.18-3.74 6.03-3.12 3.77.8l-.54.95h3.09l.54-.95c2.04-3.48.08-6.1-3.01-6.1-3.05 0-5.14 1.6-6.73 4.36l-3.76 6.44a2.42 2.42 0 00-.34-.2l-.26.3c-2.72 3.16-5.95 5.66-8.6 5.66-2.32 0-3.7-1.45-1.96-4.5l.36-.65c2.44 1.01 7.02.54 9.85-4.36l.54-.95c2.04-3.48.08-6.1-3.01-6.1-3.05 0-5.49 1.6-7.08 4.36l-3.96 6.8c-2.37 4.02-.33 7.73 4.14 7.73 3.32 0 6-2.02 8.78-4.62-.1 2.64 1.86 4.62 5.12 4.62 3.1 0 5.8-1.73 8.45-4.05m-36.88-13.96l3.05-5.24c2.76-4.75 6.29-1.96 4.4 1.6-1.45 2.73-3.6 3.56-7.45 3.64m-4.06 17.22c-2.26 0-4.04-.51-5.45-1.31.65-.76 1.3-1.7 1.89-2.69l6.35-11 1.02.1c8.86 1.86 5.34 14.9-3.81 14.9m9.33-15.48c7.63-2.58 8.21-12.13.7-12.13-2.08 0-4.55 1.45-6.26 4.43l-10.17 17.58a14.62 14.62 0 01-1.45 2.14c-2.62-3.6-1.85-8.97 1.81-11.33l-1.52-1.93c-7.92 5.05-5.6 19.62 7.63 19.62 11.3 0 16.53-13.55 9.26-18.38"/></svg>