<svg xmlns="http://www.w3.org/2000/svg" viewBox="0 0 138 70"><path fill="#81b3d3" d="M138 0H0l59.51 65.68a12.58 12.58 0 0018.98 0z"/><path fill="#23a9e1" d="M36.69.46l32.15 37.88L100.86.69z"/><path fill="#fff" d="M61.1 14.72h17.32c-1.29-.8-4.36-4.58-6.04-3.18-.14.12-4.87-5.74-7.99-2.92-2.7 2.47-3.97-.32-7.04 1.63-3.5 2.32 2.02 3.69 3.75 4.47m26.73-3.48l-9.86.05c3.9-4.5 5.65-4.01 9.86-.05"/><path fill="#491213" d="M97.62 3.59V1.15h2.08zm-49.24 9.4l.09.1c.02-.03 2.32-2.52 5.98-4.97 3.37-2.26 8.6-4.95 14.38-4.91 5.78.02 11.08 2.72 14.5 4.97a39.02 39.02 0 016.14 4.95l-2.51 2.95c-4.5.61-7.7 3.94-12.08 3.21-2.2-.36-2.27-1.63-2.9-2.89-.49-.97-1.26-.84-2.27-1.24-.93-.37-1.47-1.13-3.35-.69-1.64.39-1.82 2.94-3.86 2.79-1.1-.08-1.18-1.62-2.76-3.6-4.09-4.91-7.89-4.23-10.54.31L68.83 37.3zM40 1.16v1.91l-1.6-1.9zm53.88 0h3.22v3.03L93.9 7.96zm-4.06 11.46V1.15h3.55v7.4l-3.5 4.1a.97.97 0 00-.05-.04m-.5-10.39v9.9a41.05 41.05 0 00-3.56-3zm-4.17-.36v6.82a41.53 41.53 0 00-3.66-2.35zm-4.31-.13v4.24a32.83 32.83 0 00-3.12-1.47zm.5-.58h3.73L81.35 5.7zm4.32 0h3.63l-3.63 7.06zm-8.8 0h3.86L77.2 4.28l-.33-.12v-3zm-.5.42v2.4a25.93 25.93 0 00-3.1-.88zm-4.21.04v1.26a21.46 21.46 0 00-2.18-.25zm-6.77-.04l2.25 1.05c-.76.04-1.51.13-2.25.25zm-4.12 0l3.07 1.5a25.2 25.2 0 00-3.07.87zm3.61 1.2l-3.3-1.62h3.3zm3.57-.34l-2.76-1.28h2.76zm.6-1.28h2.89L69.06 2.5zm3.77 0h3.24l-3.24 1.59zM60.4 4.26l-3.51-3.1h3.86v2.97l-.35.14m-3.62-2.53l3.09 2.74a31.5 31.5 0 00-3.1 1.49zm-4.32.13l3.65 4.48a35.89 35.89 0 00-3.64 2.4zm-4.16.35L51.9 9.2a37.77 37.77 0 00-3.59 3.15zm3.66 6l-3.64-7.07h3.64zm4.3-2.48l-3.72-4.59h3.73zM43.76 7.5l-3.23-3.84v-2.5h3.23zm.5-6.35h3.55v11.16l-3.55-4.2zM69.06 0H36v14.58l32.84 39.94.22-.28L102 15.05V0z"/><path fill="#23a9e1" d="M66.23 46.03l2.6-4.22 2.6 4.22-2.6 4.23z"/><path fill="#dc6243" d="M74.22 30.56c-3.43-2.02-2.57-3.53.23-4.93 1.46-.73 4.75-3.38 6.13-2.5l-6.36 7.43m-2.34 2.51c-2.04-.1-4.33-.36-6.26.06 1.2.3 4.15 1.16 1.41 1.9.98 1.4 2.58 1.3 3.63.07-.43-.2-.66-.46-1.01-.68 1.08-.2 2.1-.82 2.23-1.35m1.24-1.57c-.93-.8-1.88-.84-2.75 0-1.16-2.14-5.4-1.42-7.38-1.72 1.07 2.61 9.65 3.1 10.13 1.72m-6.78-2.15c-1.56-.49-6.84-.37-3.38-1.8 1.06-.44 6.59.07 3.38 1.8m1.92-3.03c-.48-1.08.36-2.36 1.74-1.43 1.2.81-.56 2.02-1.74 1.43m-2.84.09c-2.26.68-5.27-.79-1.63-1.52 2.26-.46 4.67.5 1.63 1.52.1-.03-.08.03 0 0m-2.66-6.24c-.55 1.63-1.54 1.93-1.43-.04.13-2.27 1.61-1.73 3.2-2.6 1.33-.73 2.04-3.39 4.31-1.8 1.02.71 2.18.12 2.5 1.2-.01-.06-2.95 6.69-1.31 6.69-3.22 0-1.8-3.85-.57-6.43-1.2.57-3.15 4.34-1.55 4.96-.83 1.1-3.37 2.56-4.7 1.5-1-.82-.44-2.16-.45-3.48m-3.97 2.81c-5.6-.04-1.81-8.64.1-8.12 2.18.7 1.94 8.2-.1 8.12m-6.17-8.14c-2.62-.11-1.52-2.57.26-3.12 1.7-.53 5.25 1.11 6.39 2.2-1.8.56-4.15.48-6.13.57-.15-2.03-.62-1.32-.52.35"/><path fill="#f49774" d="M71.77 25.83c-2.9-2.98 4.35-2.71 5.51-3.76.85.28 7-5.38 8.49-5.03-1.07 1.26-3.39 5.29-5.05 5.29-1.27 0-2.56-.2-3.55.71-1.44 1.33-3.84 2.01-5.4 2.8"/><path fill="#f4b1a4" d="M72.73 22.18c-1.6.86-3.1-2.54-.35-2.2 1.82.21 3.67-.16 5.42.14a5.63 5.63 0 01-5.07 2.06"/><path fill="#fff" d="M51.11 20.93c.34.4.58.84.53 1.38-.04.37-.61 1-.18 1.2l1.46-1.84c-.4-.1-3.49-3.8-3.54-4.2l-2.05 1.12c.1.43.84 0 1.2.03.54.04.93.36 1.27.75-1.12.94-3.85 3.26-4.13 3.3-.15.03-.71-.39-.72-.03 0 .17.56.66.66.78l1.45 1.73c.4-.19-.07-.48.13-.81.15-.24 3.18-2.77 3.92-3.4M47.7 16.4c.29-.06.4.29.62-.03l-1.59-1.9c-.24-.28-.54-.6-.46.02.06.4-3.97 3.67-4.21 3.77-.31.13-.5-.27-.72.07l1.42 1.69c.16.19.31.4.49.57.22.22.13-.43.14-.38-.06-.33.34-.61.56-.8 1-.88 3.5-2.97 3.75-3m-5.7-.6c-1.14.34-2.36-.1-2.72-1.33-.36-1.19.4-2.44 1.34-3.11.93-.67 2.33-.63 2.84.54.22.52.1 1.1-.06 1.63-.1.32-.39.64.03.83l1.68-2.13c-.69-.41-.99-1.1-1.5-1.69-.57-.7-1.33-1.35-2.25-1.48-1.87-.26-3.62 1.66-3.77 3.4-.09.95.25 1.86.81 2.6.49.65 1.21 1.06 1.58 1.8.17.05 1.76-.68 2.14-.82-.04-.08-.06-.18-.11-.24-.5.15 0 0 0 0m25.5 23.64c-.74-.5-2.6-3.05-2.96-3.47l-.21-.26-.16.13c-.12.1.08.37-.04.56-.51.8-3.74 3.23-3.9 3.35-.36.25-.76-.1-.97.2.47.56 1.8 2.3 1.96 2.33.31.05.1-.53.14-.65.08-.24 1.7-1.59 2.3-2.08.22-.18.45.27.58.47.2.31.3.65.19 1.02-.07.24-.46.6-.16.76.4-.47 1.53-1.8 1.7-1.98.16-.2-.37-.03-.31-.06-.24.13-.47.15-.69-.02-.06-.04-.7-.7-.64-.75.28-.24.62-.63.98-.72.56-.14 1.03.99 1.11 1.38.08.38.07.77-.05 1.14-.08.25-.31.45.01.6l1.39-1.9a.46.46 0 01-.26-.05c-.08-.06.09.04 0 0m-9.23-8.93a3.35 3.35 0 00-1.98.8 3.44 3.44 0 00-.49 4.75c1.3 1.7 3.38 1.9 5.06.7a3.47 3.47 0 00.5-4.77 3.63 3.63 0 00-3.09-1.48zm1.2 1.39c.94-.1 1.5.8 1.09 1.77a4.83 4.83 0 01-2.42 2.38c-1.18.46-2.01-.54-1.53-1.66a4.84 4.84 0 012.42-2.38c.15-.06.3-.1.43-.1zm-2.8-4.63c.32.04.6.36.83.03l-1.44-1.71c-.4.17.02.35-.13.63-.16.27-1.66.5-2.06.57.14-.41.58-1.7.75-1.84.35-.29.57.28.83-.09l-1.78-2.11c-.2-.24-.36-.67-.63-.44.02-.02 0 .95-.06 1.12-.06.16-.61 2.36-1.25 2.9-.32.27-1.46 1.26-1.76 1.37-.35.12-.53-.4-.79-.03l1.62 1.92c.08.1.39.56.5.58.33.06.03-.58.07-.7.1-.28 1.62-1.77 2.27-1.86.95-.13 2.08-.46 3.04-.34.22.03-.23-.03 0 0m24.24 6.77c.12.42.2.86.14 1.3-.07.57-.64 1.9-1.41 1.52-.76-.37-1.43-1.12-2.07-1.65.52-.61.97-1.14 1.85-.84.24.08.44-.03.2-.17-.27-.16-2.03-1.28-2.12-1.17-.18.2.34.56.14.95-.15.3-.4.54-.6.8-.47-.4-1.25-.82-.7-1.47a2.4 2.4 0 011.37-.87c.37-.07 1.2.25 1.3-.15l-2.11-1.01c.11.52-2.18 2.94-2.68 3.55-.08.08-.43.4-.43.51-.01.28.4.07.42.06.32-.12 4.43 3.31 4.53 3.55.06.18-.15.37-.02.47 0 0 .15.14.16.12.26-.3 2.94-3.88 3.5-4.03a239.66 239.66 0 01-1.54-2.37c-.39.16-.02.61.07.9m-4 4.35c-1.35-.87-3.64.83-3.98 1-.67.31-1.16-.36-.81-.98.3-.54.9-.8 1.5-.84.18 0 .87.13.95.02.08-.13.14-.14.02-.22l-1.66-1.13c-.12.69-.9 1.12-1.35 1.59-.54.55-.99 1.25-.99 2.05 0 .73.44 1.39 1.09 1.72.74.39 1.5.08 2.16-.33.4-.25.81-.56 1.25-.76.64-.3 1.5-.04 1.26.82-.18.7-.87 1.34-1.56 1.52-.4.1-.82.07-1.21-.06-.28-.09-.65-.47-.8-.07l2.26 1.65c.07-.5.34-.7.7-1.02.48-.41.94-.85 1.3-1.38.75-1.1 1-2.64-.13-3.58m17.61-28.06a.22.22 0 00-.08.07l-.8.95-.8.98c-.18.2-.36.3-.03.47.54-.27 3.52 4.77 3.25 5.49-.47.24-4.5-3.28-4.6-3.52-.03-.1.18-.66-.13-.61-.15.02-.49.58-.58.7l-.58.7c.22.3.34-.02.62.02.25.05 1.2.86 1.46 1.08-.47.02-1.74.09-1.9.07-.6.08-.28-.43-.67-.6l-1.47 1.8-.86 1.04c-.04.04-.03.02.03.07.21.18.07.1.37 0 .33-.11 4.25 3.2 4.4 3.37.24.3-.1.64.26.8l1.17-1.42c.06-.07.1-.07.01-.13-.27-.23-.3.14-.65.1-.34-.06-2.85-2.19-3.82-3l5.32-.2c.2 0 .74.59.7.8-.06.24-.3.36.03.51.3-.37.64-.74.94-1.12l.15-.19a.48.48 0 00.14-.17l.1-.13c.28-.32 1.17-1.3 1.07-1.4-.3-.26-.45.3-.85-.04-.22-.16-.79-1.16-.93-1.4-.17-.29.4-.58.62-.72.5-.32 2.11-.77 2.26.22.03.17-.17.36-.05.46.03.02.13.16.17.1l2.15-2.57c-.07-.05-.14-.15-.21-.18-.48.48-5.47-1.52-5.83-1.8-.17-.06-.2-.67-.38-.6zm-.22 2.55l2.29.96c-.23.06-.45.17-.65.3a3.71 3.71 0 00-.62.49l-1.02-1.75zm-6.59 7.75a3.72 3.72 0 00-3.02 1.32 3.5 3.5 0 00.4 4.94 3.48 3.48 0 004.9-.55 3.46 3.46 0 00-.38-4.93 3.3 3.3 0 00-1.9-.78zm-1.45 1.56c.62.04 1.31.42 1.74.7.78.53 2.22 1.7 1.48 2.74a.8.8 0 01-.05.07.16.16 0 01-.02.02c-.8.84-2.18.06-2.92-.47-.75-.54-2.02-1.67-1.2-2.67.25-.31.6-.41.97-.39zm-3.12 4.28c-1.22-.07-2.4.5-3.3 1.58l-1.93 2.31c.23.34.5-.07.83.12.28.16 4.05 3.3 4.12 3.48.1.3-.17.36.09.57.11.1 2.94-3.4 3.2-4.02a2.82 2.82 0 00-.86-3.21 3.94 3.94 0 00-2.15-.83zm-1.06 1.58c.1 0 .19.02.27.04 1.42.36 3.38 2.11 2.13 3.63-.16.19-.03.03-.43.42-.2.19-4.18-3.04-4.02-3.21a3 3 0 012.05-.88z"/></svg>