<svg xmlns="http://www.w3.org/2000/svg" viewBox="0 0 21 22"><path d="M19.25 2.02h-2.84V.65c0-.38-.3-.7-.66-.7-.36 0-.66.32-.66.7v1.38h-3.93V.65c0-.38-.3-.7-.66-.7-.36 0-.66.32-.66.7v1.38H5.91V.65c0-.38-.3-.7-.66-.7-.36 0-.66.32-.66.7v1.38H1.75A1.8 1.8 0 000 3.86v16.3A1.8 1.8 0 001.75 22h17.5A1.8 1.8 0 0021 20.16V3.86a1.8 1.8 0 00-1.75-1.83zm.44 18.14a.45.45 0 01-.44.46H1.75a.45.45 0 01-.44-.46V3.86a.45.45 0 01.44-.46h2.84v1.38c0 .38.3.69.66.69.36 0 .66-.3.66-.69V3.4h3.93v1.38c0 .38.3.69.66.69.36 0 .66-.3.66-.69V3.4h3.93v1.38c0 .38.3.69.66.69.36 0 .66-.3.66-.69V3.4h2.84c.24 0 .44.2.44.46v16.3z"/><path d="M4.6 8.22h2.62v2.07H4.59zm0 3.45h2.62v2.06H4.59zm0 3.44h2.62v2.07H4.59zm4.59 0h2.62v2.07H9.2zm0-3.44h2.62v2.06H9.2zm0-3.45h2.62v2.07H9.2zm4.6 6.9h2.62v2.06h-2.63zm0-3.45h2.62v2.06h-2.63zm0-3.45h2.62v2.07h-2.63z"/></svg>